<svg xmlns="http://www.w3.org/2000/svg" data-name="Layer 1" viewBox="0 0 432 105.16">
  <defs></defs>
  <path d="M74.58 48.75A7.19 7.19 0 0067.46 55v27.86L39.77 48.75h-12v55.42h5.66a7.21 7.21 0 007.19-7V68.94l28.61 35.23H80.3V48.75zM151.4 76.62v-.15c0-15.77 13.25-28.66 31.5-28.66s31.32 12.74 31.32 28.49v.17c0 15.75-13.26 28.65-31.5 28.65s-31.32-12.75-31.32-28.5zm49.23 0v-.15c0-9.47-7.44-17.47-17.91-17.47S165 66.8 165 76.3v.17c0 9.48 7.43 17.4 17.9 17.4s17.73-7.74 17.73-17.25zM320.36 48.35h-12L283 104.17h8.53a7.21 7.21 0 006.63-4.4l3.5-8h25l3.54 8.15a7.21 7.21 0 006.59 4.3h8.86zM306.35 81l7.85-18 7.85 18zM133.05 52.87a6.69 6.69 0 016.16-4.12h9.48l-23.9 55.81h-11.47L89.41 48.75h9.85a6.65 6.65 0 016.13 4.08l13.83 35zM13 97V48.75H0v55.42h5.81A7.22 7.22 0 0013 97zM331 55.66a4.39 4.39 0 118.78 0 4.39 4.39 0 11-8.78 0zm8.13 0a3.7 3.7 0 00-3.74-3.77 3.75 3.75 0 00-3.74 3.79 3.74 3.74 0 107.48 0zm-5.37-2.29h2c.92 0 1.64.47 1.64 1.36a1.35 1.35 0 01-1.12 1.27l1.24 1.71h-.88l-1.11-1.61h-1.06v1.61h-.7zm1.88 2.22c.63 0 1-.33 1-.82s-.38-.77-1-.77h-1.18v1.59zM271.83 90.92a5 5 0 00-3.61-1.55 4.81 4.81 0 00-2.74.83 20.67 20.67 0 01-11.79 3.71 16.93 16.93 0 01-17.16-17.28v-.15c0-9.51 7-17.43 17.16-17.43A19.93 19.93 0 01265.92 63a5 5 0 003 1 4.93 4.93 0 003.61-1.55l5-4.72c-6.09-6.09-12.84-9.9-24.26-9.9-17.41 0-30.34 12.6-30.34 28.53v.15c0 15.76 12.68 28.68 30.86 28.68 11.15 0 17.83-3.47 23.32-8.56l-5.27-5.69z"></path>
  <path fill="#02B388" d="M404.79 0h-29.27a27.24 27.24 0 00-27.21 27.21v14A27.18 27.18 0 00362.3 65l-13.22 13.63 35.81-10.16h19.9A27.25 27.25 0 00432 41.26v-14A27.24 27.24 0 00404.79 0zm10.88 41.26a10.92 10.92 0 01-9.81 10.83l.76 8.83-14.13-8.77h-17a10.91 10.91 0 01-10.88-10.89v-14a10.91 10.91 0 0110.88-10.89h29.27a10.91 10.91 0 0110.88 10.89z"></path>
</svg>